<?xml version="1.0" encoding="UTF-8" standalone="no"?>
<svg
   version="1.1"
   width="499.99997"
   height="500"
   viewBox="0 0 499.99997 500"
   id="svg4"
   sodipodi:docname="logo_nubi.svg"
   inkscape:version="1.4 (1:1.4+202410161351+e7c3feb100)"
   xmlns:inkscape="http://www.inkscape.org/namespaces/inkscape"
   xmlns:sodipodi="http://sodipodi.sourceforge.net/DTD/sodipodi-0.dtd"
   xmlns="http://www.w3.org/2000/svg"
   xmlns:svg="http://www.w3.org/2000/svg">
  <defs
     id="defs4" />
  <sodipodi:namedview
     id="namedview4"
     pagecolor="#505050"
     bordercolor="#eeeeee"
     borderopacity="1"
     inkscape:showpageshadow="0"
     inkscape:pageopacity="0"
     inkscape:pagecheckerboard="0"
     inkscape:deskcolor="#505050"
     inkscape:zoom="0.72933333"
     inkscape:cx="217.32176"
     inkscape:cy="215.95064"
     inkscape:window-width="1920"
     inkscape:window-height="1011"
     inkscape:window-x="0"
     inkscape:window-y="32"
     inkscape:window-maximized="1"
     inkscape:current-layer="svg4" />
  <path
     fill="#ffffff"
     stroke="#000000"
     stroke-width="46.5159"
     d="m 249.98827,23.257954 a 226.68784,226.74204 0 1 0 0,453.484076 226.68784,226.74204 0 1 0 0,-453.484076 z"
     paint-order="stroke"
     id="path1"
     inkscape:export-filename="favicon.svg"
     inkscape:export-xdpi="96"
     inkscape:export-ydpi="96" />
  <path
     d="m 376.8464,390.99748 -0.62434,0.62451 q -1.23714,0 -12.32508,-10.25796 -11.08795,-10.25794 -28.48875,-26.94587 -17.40078,-16.67637 -38.11987,-36.6834 -20.71908,-19.99545 -41.23006,-39.99091 -20.51096,-20.00702 -37.81927,-36.68341 -17.29674,-16.68795 -27.96845,-26.84179 -10.67172,-10.15385 -11.29605,-10.15385 -1.02903,0 -1.23714,1.56125 -0.20813,1.54966 -0.20813,2.17415 0,18.85056 0.10407,37.60859 0.10406,18.75804 0.10406,37.62015 v 31.3983 q 0,15.64711 -0.20813,31.59491 0,6.63818 0.3122,14.51377 0.31216,7.8756 -0.52031,14.5022 -0.41624,4.15175 -2.06959,6.22183 -1.65337,2.07009 -6.42847,2.07009 h -36.66306 q -8.49807,0 -8.49807,-8.70824 0,-11.80762 0.52028,-23.62682 0.50874,-11.80759 0.71685,-23.6152 0.41623,-23.6268 0.62435,-47.25359 0.20811,-23.6268 0.20811,-47.25359 0,-24.86421 -0.20811,-49.74001 -0.20812,-24.86422 -0.83246,-49.74001 -0.19656,-11.80761 -0.71685,-23.61522 -0.52029,-11.819187 -0.52029,-23.626803 0,-1.248993 1.23714,-1.248993 1.24868,0 2.08116,0.832661 49.31188,45.796425 96.54262,93.778605 47.24228,47.97059 95.7217,94.59968 0.41624,0.41633 1.2487,1.14492 0.83246,0.71701 1.65335,0.71701 1.24871,0 1.35275,-1.54968 0.10407,-1.54968 0.10407,-2.17418 0,-19.27844 -0.10407,-38.44123 -0.10404,-19.17437 -0.10404,-38.44125 v -33.06364 q 0,-16.46821 0.20811,-32.8439 0,-6.83477 -0.20811,-14.09743 -0.20812,-7.25111 0.41622,-14.08587 0.40468,-4.348351 2.0696,-6.430008 1.65336,-2.070091 6.41691,-2.070091 h 35.64562 q 8.48649,0 8.48649,8.708259 0,10.77836 -0.41622,21.55671 -0.40468,10.76679 -0.6128,21.75331 -0.41623,22.58596 -0.62435,45.49573 -0.20811,22.89822 -0.20811,45.69234 0,77.50699 2.48582,155.01397"
     paint-order="stroke"
     id="path2"
     style="stroke-width:1.15632" />
</svg>
