<?xml version="1.0" encoding="UTF-8" standalone="no"?>
<!-- Created with Inkscape (http://www.inkscape.org/) -->

<svg
   version="1.1"
   id="svg1"
   width="525.86438"
   height="525.90784"
   viewBox="0 0 525.86438 525.90784"
   xmlns="http://www.w3.org/2000/svg"
   xmlns:svg="http://www.w3.org/2000/svg">
  <defs
     id="defs1">
    <filter
       style="color-interpolation-filters:sRGB"
       id="filter7"
       x="-0.045349009"
       y="-0.038312703"
       width="1.0906982"
       height="1.0765877">
      <feGaussianBlur
         stdDeviation="2.5505793"
         id="feGaussianBlur7" />
    </filter>
    <filter
       style="color-interpolation-filters:sRGB"
       id="filter8"
       x="-0.019823015"
       y="-0.019910144"
       width="1.0394022"
       height="1.0398032">
      <feGaussianBlur
         stdDeviation="2.529265"
         id="feGaussianBlur8" />
    </filter>
  </defs>
  <g
     id="g1"
     transform="translate(-57.054508,-56.904563)">
    <path
       d="M 319.01461,68.045135 C 148.08995,72.177068 4.0527662,257.24843 97.544462,436.46194 l 6.284578,12.04347 -15.589617,57.97396 c -8.572673,31.88488 -15.391855,58.125 -15.151184,58.31439 0.240703,0.18912 26.034486,-6.50044 57.316251,-14.87039 l 56.87776,-15.21696 12.47779,7.28933 c 26.8477,15.6892 67.06589,27.98012 100.81498,30.80473 17.13204,1.43387 23.9337,1.31961 50.79414,-0.85115 C 580.36128,553.44302 657.4955,238.73867 464.29042,111.2338 416.83964,79.918889 366.87351,66.888196 319.01461,68.045135 Z"
       style="mix-blend-mode:normal;fill:#5000a0;fill-opacity:1;stroke:#000000;stroke-width:6.23061;stroke-dasharray:none;stroke-opacity:1"
       id="path5" />
    <path
       d="M 318.01462,67.045125 C 147.08996,71.177055 3.0527725,256.24841 96.544468,435.46192 l 6.284582,12.04347 -15.589621,57.97396 c -8.572673,31.88488 -15.391855,58.125 -15.151184,58.31439 0.240703,0.18912 26.034486,-6.50044 57.316255,-14.87039 l 56.87776,-15.21696 12.47779,7.28933 c 26.8477,15.6892 67.06589,27.98012 100.81498,30.80473 17.13204,1.43387 23.9337,1.31961 50.79414,-0.85115 C 579.36129,552.443 656.49551,237.73865 463.29043,110.23378 415.83965,78.918875 365.87352,65.888185 318.01462,67.045125 Z"
       style="mix-blend-mode:darken;fill:none;fill-opacity:1;stroke:#000000;stroke-width:8;stroke-dasharray:none;stroke-opacity:1;filter:url(#filter8)"
       id="path5-2" />
    <path
       id="text7-9"
       style="font-weight:800;font-size:145.925px;font-family:Nunito;-inkscape-font-specification:'Nunito Ultra-Bold';text-align:center;text-anchor:middle;mix-blend-mode:darken;fill:#000000;fill-opacity:1;stroke:#000000;stroke-width:10;stroke-linejoin:round;stroke-dasharray:none;stroke-opacity:1;paint-order:fill markers stroke;filter:url(#filter7)"
       d="m 134.81076,175.7267 c -13.82047,0.30813 -26.1365,11.72505 -26.13767,26.08853 -0.58023,29.629 -0.0922,59.28741 -0.25239,88.92929 0.16444,50.00686 -0.33377,100.03449 0.25239,150.02773 0.041,15.09415 14.07598,26.12028 28.64026,24.86075 l 1.7776,-0.0241 c 14.88852,0.9484 27.39906,-11.7497 26.99697,-26.50665 0.24728,-52.54221 0.072,-105.09451 0.11294,-157.64092 39.43027,50.27365 78.86332,100.54751 118.29365,150.8212 10.14767,11.67604 17.90092,27.62453 33.67774,32.25407 16.01312,5.53865 35.11678,-5.16005 35.17066,-22.96813 0.55099,-34.38105 0.0831,-68.79649 0.23642,-103.19062 -0.17377,-45.91185 0.34947,-91.84322 -0.26864,-137.73945 -0.5904,-15.32525 -15.56665,-26.34756 -30.34806,-24.58193 -14.52652,-0.61726 -27.30008,11.63609 -27.05072,26.20643 -0.24547,52.34889 -0.0756,104.70871 -0.11295,157.06187 -39.89231,-50.71789 -79.78688,-101.43294 -119.67919,-152.15083 -10.19075,-11.76787 -18.40698,-28.59705 -35.32109,-30.87086 -2.0043,-0.43311 -4.01366,-0.61764 -5.98801,-0.57362 z"
       transform="matrix(0.99999855,0,0,1.0000002,89.000338,-5e-5)" />
    <path
       id="text7"
       style="font-weight:800;font-size:145.925px;font-family:Nunito;-inkscape-font-specification:'Nunito Ultra-Bold';text-align:center;text-anchor:middle;display:inline;opacity:1;fill:#ffffff;stroke:#000000;stroke-width:6;stroke-linejoin:round;stroke-dasharray:none;stroke-opacity:1;paint-order:fill markers stroke"
       d="m 224.81076,175.7267 c -13.82047,0.30813 -26.1365,11.72505 -26.13767,26.08853 -0.58023,29.629 -0.0922,59.28741 -0.25239,88.92929 0.16444,50.00686 -0.33377,100.03449 0.25239,150.02773 0.041,15.09415 14.07598,26.12028 28.64026,24.86075 l 1.7776,-0.0241 c 14.88852,0.9484 27.39906,-11.7497 26.99697,-26.50665 0.24728,-52.54221 0.072,-105.09451 0.11294,-157.64092 39.43027,50.27365 78.86332,100.54751 118.29365,150.8212 10.14767,11.67604 17.90092,27.62453 33.67774,32.25407 16.01312,5.53865 35.11678,-5.16005 35.17066,-22.96813 0.55099,-34.38105 0.0831,-68.79649 0.23642,-103.19062 -0.17377,-45.91185 0.34947,-91.84322 -0.26864,-137.73945 -0.5904,-15.32525 -15.56665,-26.34756 -30.34806,-24.58193 -14.52652,-0.61726 -27.30008,11.63609 -27.05072,26.20643 -0.24547,52.34889 -0.0756,104.70871 -0.11295,157.06187 -39.89231,-50.71789 -79.78688,-101.43294 -119.67919,-152.15083 -10.19075,-11.76787 -18.40698,-28.59705 -35.32109,-30.87086 -2.0043,-0.43311 -4.01366,-0.61764 -5.98801,-0.57362 z" />
  </g>
</svg>
